<?xml version="1.0" encoding="UTF-8"?>
<!DOCTYPE svg PUBLIC "-//W3C//DTD SVG 1.1//EN" "http://www.w3.org/Graphics/SVG/1.1/DTD/svg11.dtd">
<!-- Creator: CorelDRAW -->
<svg xmlns="http://www.w3.org/2000/svg" xml:space="preserve" width="211mm" height="48.5mm" version="1.1" style="shape-rendering:geometricPrecision; text-rendering:geometricPrecision; image-rendering:optimizeQuality; fill-rule:evenodd; clip-rule:evenodd"
viewBox="0 0 21100 4850"
 xmlns:xlink="http://www.w3.org/1999/xlink"
 xmlns:xodm="http://www.corel.com/coreldraw/odm/2003"
 zoomAndPan="magnify">
 <defs>
  <style type="text/css">
   <![CDATA[
    .fil1 {fill:none}
    .fil0 {fill:#0CBF65}
    .fil3 {fill:#99CC33}
    .fil2 {fill:#ACCE22}
    .fil4 {fill:white}
    .fil5 {fill:#13C066;fill-rule:nonzero}
   ]]>
  </style>
   <clipPath id="id0">
    <path d="M17476.94 193.19l3657.24 0 0 3100.16 -3657.24 0 0 -3100.16zm0 0z"/>
   </clipPath>
   <clipPath id="id1">
    <path d="M10594.57 -1.55l3596.2 0 0 3952.72 -3596.2 0 0 -3952.72zm0 0z"/>
   </clipPath>
 </defs>
 <g id="Layer_x0020_1">
  <metadata id="CorelCorpID_0Corel-Layer"/>
  <path class="fil0" d="M6837.78 3727.14l-0.47 101.72 -624.15 -3.14c-110.94,-194.5 -868.77,-1776.54 -874.59,-1901.77l616.87 0c205.39,477.62 530.91,1101.3 768.52,1611.86 82.59,178 62.98,174.86 113.82,191.33zm0 0z"/>
  <path class="fil0" d="M7378.62 3727.14l-0.49 101.72 561.92 2.9 3.63 -1979.5c119.64,54.75 178.75,175.1 255.28,279.98l1084.58 1465.33c79.67,108.02 108.99,222.82 256.01,236.87 125.93,12.11 391.15,3.14 522.67,-4.86 -48.94,-154.52 -2610.22,-3553.08 -2627.41,-3562.52 -62.72,131.28 -13.57,3039.86 -21.54,3471.71 -14.29,-5.34 -25.68,-8.73 -34.65,-11.63zm0 0z"/>
  <g>
  </g>
  <g style="clip-path:url(#id0)">
   <g id="_1979368813232">
    <path class="fil0" d="M18022.62 3272.52c78.72,-40.44 260.61,-228.4 304.22,-292.81 -55,-124.02 -129.59,-160.1 -202.49,-294.27 -483.67,-889.37 215.07,-1970.07 1173.46,-2002.04 982.61,-32.46 1710.42,1049.94 1141.25,1970.54 -68.3,110.69 -173.4,228.15 -192.79,298.16 60.55,74.11 227.18,258.66 326.01,330.6 188.91,-91.8 438.13,-596.54 489.49,-832.69 457.02,-2099.39 -2377.21,-3175.26 -3406.56,-1196.72 -143.87,276.36 -229.36,750.82 -138.79,1155.06 64.68,288.95 283.14,774.8 506.2,864.17zm0 0z"/>
   </g>
  </g>
  <path class="fil1" d="M17476.94 193.19l3657.24 0 0 3100.16 -3657.24 0 0 -3100.16zm0 0z"/>
  <path class="fil2" d="M15497.93 2337.88l90.34 -102.7c97.6,-169.54 603.08,-796.6 763.42,-1010.47 95.91,-127.63 705.77,-865.62 769.94,-1025.95l-655.38 1.69c-77.76,131.75 -1326.78,1751.11 -1371.11,1774.12l-4.85 -1766.61 -518.78 0.49 -5.57 3290.04c63.2,-11.37 20.1,5.57 63.94,-33.66 15.5,-14.04 45.77,-56.43 60.3,-75.57l349.5 -452.91c161.8,-212.4 277.08,-375.65 458.25,-598.47zm0 0z"/>
  <path class="fil3" d="M2.88 3825.47c230.58,43.36 837.05,10.9 1102.02,8.72 361.6,-2.9 652.97,-45.29 945.79,-158.39 447.83,-173.42 973.17,-720.56 942.64,-1306.92l-474.95 -1.46c-201.51,266.91 -131.52,1128.66 -1976.84,981.64l-19.14 -988.67 -505.95 0 -13.57 1465.08zm0 0z"/>
  <path class="fil2" d="M3430.51 3834.19l608.89 -0.72c90.1,-117.48 1112.92,-2329.49 1291.89,-2691.34 162.77,-329.64 156.71,-238.33 -183.1,-901.24 -67.34,47.97 -86.21,121.59 -126.18,203.71l-322.13 673.8c-155.98,335.43 -1251.22,2553.51 -1269.37,2715.79zm0 0z"/>
  <path class="fil0" d="M10611.76 3828.14l644.5 4.36 1280.03 -2690.37c146.05,-330.13 156.95,-179.72 -77.74,-683.98 -44.57,-95.67 -56.68,-162.51 -135.16,-203.93 -108.74,147.49 -702.62,1467.26 -861.26,1782.35 -147.99,294.52 -283.38,611.32 -429.42,899.06l-420.95 892.51zm0 0z"/>
  <path class="fil0" d="M25.64 693.82c1315.41,62.73 1891.12,-291.12 2420.33,859.09l532.84 4.58c6.54,-349.24 -455.83,-1015.54 -942.66,-1198.87 -512.98,-193.29 -1397.48,-195.96 -2007.59,-148.24l-2.92 483.44zm0 0z"/>
  <path class="fil2" d="M13416.69 3827.9l624.4 7.98c-11.39,-156.69 -750.59,-1628.06 -885.49,-1909.26l-631.9 -1.7c25.91,147.51 358.69,787.39 434.51,945.31 150.4,313.66 301.78,660.48 458.48,957.67zm0 0z"/>
  <path class="fil0" d="M15497.93 2337.88c58.84,-53.29 -12.85,-16.47 97.12,-38.27 19.62,75.07 850.12,1516.42 930.78,1535.79l582 0c-25.67,-186.99 -747.67,-1238.37 -886.94,-1566.32 -184.79,-20.33 -550.28,18.65 -632.62,-33.9l-90.34 102.7zm0 0z"/>
  <path class="fil2" d="M9563.77 1479.76l526.29 2.18 7.99 -1275.44 -534.78 -5.56 0.5 1278.82zm0 0z"/>
  <path class="fil2" d="M18849.98 3764.43c184.32,94.47 709.41,76.05 896.38,0.97 -13.07,-142.89 -74.59,-285.31 -111.64,-425.79l-309.54 8.73c-423.84,-4.36 -365.97,-196.2 -462.84,192.05l-29.3 161.56c4.36,55.7 -0.25,31 16.94,62.48zm0 0z"/>
  <g>
  </g>
  <g style="clip-path:url(#id1)">
   <g id="_1979368807136">
    <path class="fil0" d="M10654.4 3957.71l3506.57 0.72 1.22 -3946.9 -3503.43 -6.05 -4.36 3952.23zm0 0z"/>
   </g>
  </g>
  <path class="fil1" d="M10594.57 -1.55l3596.2 0 0 3952.72 -3596.2 0 0 -3952.72zm0 0z"/>
  <path class="fil4" d="M11639.91 2873.13l1537 0.49c92.52,285.55 352.16,1113.16 681.32,692.2 133.21,-170.5 -39.72,-450.23 -102.94,-601.61l-958.64 -2241.34c-84.27,-202 -128.35,-417.3 -371.28,-430.87 -261.34,-14.53 -310.02,180.68 -401.82,399.64l-953.54 2245.2c-70,165.42 -241.47,448.8 -124.98,621.97 44.08,65.38 146.28,127.15 264.48,104.38 202.49,-38.75 375.89,-607.68 430.4,-790.06zm0 0z"/>
  <path class="fil0" d="M11858.13 2394.07l1103.47 1.68c-32.71,-209.73 -438.39,-1078.52 -538.17,-1377.39 -96.4,89.86 -223.56,499.41 -294.76,661.94 -62.73,143.13 -248.01,568.68 -270.54,713.77zm0 0z"/>
  <g id="_1979368795856">
   <g>
    <g>
     <path class="fil5" d="M786.65 4452.93c0,72.41 -14.29,136.12 -42.62,190.85 -28.58,54.98 -68.79,96.88 -121.09,125.95 -51.84,29.07 -111.91,43.59 -180.21,43.59l-264.48 0 0 -707.22 233.48 0c120.13,0 212.42,30.02 277.08,90.1 65.15,60.05 97.84,145.81 97.84,256.73zm-95.91 0c0,-87.67 -24.22,-154.53 -72.66,-200.54 -47.94,-46.51 -117.23,-69.76 -208.29,-69.76l-135.63 0 0 554.16 157.92 0c51.59,0 97.12,-11.14 136.6,-33.9 39.23,-23.25 69.27,-56.21 90.09,-98.83 21.32,-42.62 31.97,-93.01 31.97,-151.13zm0 0z"/>
    </g>
   </g>
  </g>
  <g id="_1979368796048">
   <g>
    <g>
     <path class="fil5" d="M1772.6 4813.32l-81.37 -206.36 -321.64 0 -81.38 206.36 -99.79 0 288.7 -707.22 108.51 0 284.83 707.22 -97.86 0zm-242.19 -634.56l-4.85 13.55c-8.47,27.86 -20.83,63.47 -36.81,106.58l-90.11 232.51 264.5 0 -91.08 -233.47c-9.68,-22.54 -19.12,-48.44 -28.08,-77.51l-13.57 -41.66zm0 0z"/>
    </g>
   </g>
  </g>
  <g id="_1979368797680">
   <g>
    <g>
     <path class="fil5" d="M2765.81 4813.32l-378.81 -602.59 2.9 49.41 1.95 83.31 0 469.87 -85.26 0 0 -707.22 111.41 0 382.68 606.47c-3.87,-65.89 -5.82,-113.34 -5.82,-142.41l0 -464.06 86.23 0 0 707.22 -115.28 0zm0 0z"/>
    </g>
   </g>
  </g>
  <g id="_1979368796720">
   <g>
    <g>
     <path class="fil5" d="M3900.96 4813.32l-81.4 -206.36 -321.63 0 -81.38 206.36 -99.79 0 288.7 -707.22 108.51 0 284.83 707.22 -97.84 0zm-242.21 -634.56l-4.84 13.55c-8.49,27.86 -20.84,63.47 -36.82,106.58l-90.09 232.51 264.48 0 -91.08 -233.47c-9.68,-22.54 -19.12,-48.44 -28.09,-77.51l-13.56 -41.66zm0 0z"/>
    </g>
   </g>
  </g>
  <g id="_1979368793312">
   <g>
    <g>
    </g>
   </g>
  </g>
  <g id="_1979368792640">
   <g>
    <g>
     <path class="fil5" d="M5572.7 4813.32l-81.38 -206.36 -321.65 0 -81.38 206.36 -99.8 0 288.72 -707.22 108.5 0 284.83 707.22 -97.84 0zm-242.22 -634.56l-4.83 13.55c-8.49,27.86 -20.83,63.47 -36.82,106.58l-90.09 232.51 264.48 0 -91.06 -233.47c-9.71,-22.54 -19.14,-48.44 -28.11,-77.51l-13.57 -41.66zm0 0z"/>
    </g>
   </g>
  </g>
  <g id="_1979368793264">
   <g>
    <g>
     <path class="fil5" d="M6708.3 4813.32l0 -471.81c0,-52.3 1.21,-102.2 3.87,-150.16 -16.22,59.58 -30.76,106.33 -43.59,140.48l-183.1 481.49 -66.85 0 -185.05 -481.49 -28.09 -85.26 -17.43 -55.22 1.93 55.22 1.94 94.94 0 471.81 -85.27 0 0 -707.22 125.95 0 187.96 490.21c7.01,20.11 13.55,41.43 19.37,63.94 6.29,22.78 10.67,38.76 12.6,48.44 2.42,-12.83 8,-32.94 16.47,-60.06 8.96,-27.61 14.76,-45.04 17.43,-52.32l185.04 -490.21 123.05 0 0 707.22 -86.23 0zm0 0z"/>
    </g>
   </g>
  </g>
  <g id="_1979368794464">
   <g>
    <g>
     <path class="fil5" d="M7814.92 4813.32l-81.37 -206.36 -321.64 0 -81.37 206.36 -99.8 0 288.7 -707.22 108.51 0 284.84 707.22 -97.87 0zm-242.19 -634.56l-4.85 13.55c-8.47,27.86 -20.83,63.47 -36.8,106.58l-90.11 232.51 264.49 0 -91.07 -233.47c-9.69,-22.54 -19.13,-48.44 -28.09,-77.51l-13.57 -41.66zm0 0z"/>
    </g>
   </g>
  </g>
  <g id="_1979368794176">
   <g>
    <g>
     <path class="fil5" d="M8808.13 4813.32l-378.81 -602.59 2.9 49.41 1.95 83.31 0 469.87 -85.26 0 0 -707.22 111.41 0 382.68 606.47c-3.88,-65.89 -5.82,-113.34 -5.82,-142.41l0 -464.06 86.23 0 0 707.22 -115.28 0zm0 0z"/>
    </g>
   </g>
  </g>
  <g id="_1979368793552">
   <g>
    <g>
     <path class="fil5" d="M9943.28 4813.32l-81.39 -206.36 -321.64 0 -81.38 206.36 -99.79 0 288.7 -707.22 108.51 0 284.83 707.22 -97.84 0zm-242.21 -634.56l-4.83 13.55c-8.49,27.86 -20.85,63.47 -36.83,106.58l-90.09 232.51 264.48 0 -91.08 -233.47c-9.68,-22.54 -19.12,-48.44 -28.08,-77.51l-13.57 -41.66zm0 0z"/>
    </g>
   </g>
  </g>
  <g id="_1979368794080">
   <g>
    <g>
     <path class="fil5" d="M10955.84 4813.32l0 -327.46 -382.68 0 0 327.46 -95.91 0 0 -707.22 95.91 0 0 299.35 382.68 0 0 -299.35 95.91 0 0 707.22 -95.91 0zm0 0z"/>
    </g>
   </g>
  </g>
  <g id="_1979368790912">
   <g>
    <g>
    </g>
   </g>
  </g>
  <g id="_1979368790672">
   <g>
    <g>
     <path class="fil5" d="M12676.52 4813.32l-282.88 -341.01 -92.04 69.74 0 271.27 -95.91 0 0 -707.22 95.91 0 0 354.58 341.02 -354.58 112.38 0 -301.3 307.11 341.99 400.11 -119.17 0zm0 0z"/>
    </g>
   </g>
  </g>
  <g id="_1979368790144">
   <g>
    <g>
     <path class="fil5" d="M13908.06 4456.81c0,73.63 -14.31,138.29 -42.64,193.76 -28.58,55.69 -69.27,98.33 -122.06,127.88 -53.05,29.79 -115.3,44.57 -186.99,44.57 -73.14,0 -136.11,-14.54 -188.91,-43.61 -52.32,-29.54 -92.52,-72.16 -120.13,-127.88 -27.85,-55.47 -41.67,-120.37 -41.67,-194.72 0,-112.87 31,-201.52 93.01,-265.46 62.01,-63.94 148.24,-95.91 258.68,-95.91 71.69,0 133.93,14.53 186.97,43.6 52.8,28.58 93.24,70.23 121.1,124.96 28.33,54.26 42.64,118.69 42.64,192.81zm-98.83 0c0,-88.4 -22.04,-157.44 -65.87,-207.32 -44.08,-50.39 -106.09,-75.58 -186.01,-75.58 -80.9,0 -143.38,24.96 -187.95,74.61 -44.08,49.16 -65.88,118.67 -65.88,208.29 0,88.64 22.27,158.89 66.84,211.19 44.58,51.83 106.57,77.51 186.01,77.51 81.39,0 143.63,-25.19 186.99,-75.57 43.83,-50.38 65.87,-121.35 65.87,-213.13zm0 0z"/>
    </g>
   </g>
  </g>
  <g id="_1979368791680">
   <g>
    <g>
     <path class="fil5" d="M14992.85 4813.32l0 -471.81c0,-52.3 1.22,-102.2 3.89,-150.16 -16.23,59.58 -30.76,106.33 -43.61,140.48l-183.1 481.49 -66.84 0 -185.04 -481.49 -28.1 -85.26 -17.44 -55.22 1.93 55.22 1.95 94.94 0 471.81 -85.26 0 0 -707.22 125.95 0 187.94 490.21c7.03,20.11 13.57,41.43 19.39,63.94 6.29,22.78 10.65,38.76 12.58,48.44 2.43,-12.83 8,-32.94 16.47,-60.06 8.96,-27.61 14.78,-45.04 17.45,-52.32l185.04 -490.21 123.03 0 0 707.22 -86.23 0zm0 0z"/>
    </g>
   </g>
  </g>
  <g id="_1979368792256">
   <g>
    <g>
     <path class="fil5" d="M15880.54 4823.02c-58.13,0 -108.99,-10.18 -152.11,-31 -43.34,-21.32 -77.01,-51.83 -100.74,-92.05 -23.25,-39.97 -34.89,-87.67 -34.89,-143.38l0 -450.49 95.91 0 0 441.77c0,64.66 16,113.84 48.44,147.27 32.96,33.66 80.43,50.37 142.42,50.37 63.94,0 113.36,-16.96 148.23,-51.36 35.37,-34.87 53.29,-85.48 53.29,-152.1l0 -435.95 94.95 0 0 440.8c0,57.65 -12.36,107.06 -36.82,148.24 -23.98,41.41 -58.13,73.13 -102.7,94.93 -44.08,22.04 -95.91,32.95 -155.98,32.95zm0 0z"/>
    </g>
   </g>
  </g>
  <g id="_1979368789232">
   <g>
    <g>
     <path class="fil5" d="M17149.38 4813.32l-378.79 -602.59 2.9 49.41 1.93 83.31 0 469.87 -85.24 0 0 -707.22 111.41 0 382.68 606.47c-3.88,-65.89 -5.82,-113.34 -5.82,-142.41l0 -464.06 86.23 0 0 707.22 -115.3 0zm0 0z"/>
    </g>
   </g>
  </g>
  <g id="_1979368788704">
   <g>
    <g>
     <path class="fil5" d="M17793.36 4813.32l0 -707.22 95.91 0 0 707.22 -95.91 0zm0 0z"/>
    </g>
   </g>
  </g>
  <g id="_1979368788272">
   <g>
    <g>
     <path class="fil5" d="M18695.7 4184.58l0 628.74 -94.94 0 0 -628.74 -243.18 0 0 -78.48 581.28 0 0 78.48 -243.16 0zm0 0z"/>
    </g>
   </g>
  </g>
  <g id="_1979368788128">
   <g>
    <g>
     <path class="fil5" d="M19898.57 4813.32l-81.38 -206.36 -321.63 0 -81.38 206.36 -99.8 0 288.7 -707.22 108.52 0 284.83 707.22 -97.86 0zm-242.2 -634.56l-4.85 13.55c-8.47,27.86 -20.82,63.47 -36.8,106.58l-90.11 232.51 264.5 0 -91.08 -233.47c-9.69,-22.54 -19.12,-48.44 -28.09,-77.51l-13.57 -41.66zm0 0z"/>
    </g>
   </g>
  </g>
  <g id="_1979368788416">
   <g>
    <g>
     <path class="fil5" d="M20986.72 4617.63c0,65.4 -25.68,116.02 -76.54,152.1 -51.11,35.61 -123.03,53.29 -216.04,53.29 -171.97,0 -271.76,-59.58 -299.37,-179.24l93.01 -18.4c10.9,42.62 33.43,74.12 67.81,93.98 34.88,19.37 82.36,29.05 142.41,29.05 62.01,0 109.73,-10.65 143.39,-31.97 33.42,-21.3 50.38,-52.3 50.38,-92.99 0,-23.26 -5.57,-41.9 -16.46,-56.19 -10.43,-14.78 -25.21,-26.65 -44.58,-35.86 -18.89,-9.68 -41.4,-17.43 -67.82,-23.25 -25.91,-6.29 -54.98,-13.57 -87.18,-21.32 -56.19,-12.11 -98.83,-24.45 -127.88,-36.8 -28.59,-12.11 -51.11,-25.68 -67.82,-40.69 -16.96,-15.5 -29.79,-33.43 -38.76,-54.26 -9.21,-20.58 -13.57,-44.08 -13.57,-70.72 0,-60.08 23.26,-106.56 69.76,-139.5 46.51,-32.96 112.87,-49.42 199.58,-49.42 79.93,0 140.95,12.35 183.1,36.82 42.64,24.71 72.66,66.61 90.11,125.94l-94.94 16.47c-10.43,-37.29 -30.04,-64.43 -59.11,-81.37 -29.05,-16.72 -69.27,-25.21 -120.13,-25.21 -56.91,0 -100.27,9.46 -129.82,28.11 -29.79,18.89 -44.57,46.5 -44.57,83.31 0,22.04 5.33,40.21 16.47,54.25 11.64,14.29 28.35,26.65 50.39,36.82 21.79,9.69 65.15,21.8 129.81,35.84 21.8,5.34 43.59,10.42 64.91,15.5 21.8,5.33 42.62,11.39 62.01,18.42 19.86,7.26 38.26,15.5 55.22,25.19 17.44,9.68 32.45,21.79 45.52,35.84 12.85,14.28 22.78,31 30.04,50.39 7.03,18.87 10.67,40.68 10.67,65.87zm0 0z"/>
    </g>
   </g>
  </g>
 </g>
</svg>
