<svg width="25" height="25" viewBox="0 0 25 25" fill="none" xmlns="http://www.w3.org/2000/svg">
<path fill-rule="evenodd" clip-rule="evenodd" d="M11.4101 21.6801C9.01237 21.6802 6.68484 20.871 4.80439 19.3834C2.92394 17.8959 1.60069 15.8171 1.04892 13.4838C0.497159 11.1504 0.749194 8.69915 1.76421 6.5269C2.77923 4.35466 4.4978 2.58865 6.6416 1.51486C8.7854 0.441076 11.2289 0.122392 13.5764 0.61042C15.9239 1.09845 18.0379 2.36461 19.5761 4.20386C21.1143 6.04311 21.9866 8.34775 22.0518 10.7445C22.1169 13.1414 21.3711 15.49 19.9351 17.4101C20.0576 17.4788 20.1726 17.5651 20.2763 17.6688L24.4576 21.8513C24.611 21.9961 24.7338 22.1703 24.8187 22.3634C24.9036 22.5565 24.9489 22.7647 24.952 22.9757C24.955 23.1867 24.9157 23.3961 24.8363 23.5916C24.757 23.7871 24.6393 23.9647 24.4901 24.1138C24.3409 24.263 24.1633 24.3808 23.9678 24.4601C23.7723 24.5394 23.5629 24.5787 23.3519 24.5757C23.141 24.5727 22.9328 24.5274 22.7397 24.4424C22.5465 24.3575 22.3724 24.2347 22.2276 24.0813L18.0451 19.9001C17.9438 19.799 17.8567 19.6846 17.7863 19.5601C15.947 20.9395 13.7091 21.6836 11.4101 21.6801ZM11.4101 20.1026C13.8152 20.1026 16.1219 19.1471 17.8226 17.4464C19.5233 15.7457 20.4788 13.439 20.4788 11.0338C20.4788 8.62862 19.5233 6.32195 17.8226 4.62123C16.1219 2.92051 13.8152 1.96506 11.4101 1.96506C9.00487 1.96506 6.6982 2.92051 4.99748 4.62123C3.29676 6.32195 2.34131 8.62862 2.34131 11.0338C2.34131 13.439 3.29676 15.7457 4.99748 17.4464C6.6982 19.1471 9.00487 20.1026 11.4101 20.1026Z" fill="#333333"/>
</svg>
