<?xml version="1.0" encoding="UTF-8"?>
<!DOCTYPE svg PUBLIC "-//W3C//DTD SVG 1.1//EN" "http://www.w3.org/Graphics/SVG/1.1/DTD/svg11.dtd">
<!-- Creator: CorelDRAW -->
<svg xmlns="http://www.w3.org/2000/svg" xml:space="preserve" width="203.5mm" height="38mm" version="1.1" style="shape-rendering:geometricPrecision; text-rendering:geometricPrecision; image-rendering:optimizeQuality; fill-rule:evenodd; clip-rule:evenodd"
viewBox="0 0 20350 3800"
 xmlns:xlink="http://www.w3.org/1999/xlink"
 xmlns:xodm="http://www.corel.com/coreldraw/odm/2003">
 <defs>
  <style type="text/css">
   <![CDATA[
    .fil1 {fill:#ACCE22}
    .fil0 {fill:#0CBF65}
    .fil2 {fill:#99CC33}
    .fil3 {fill:white}
   ]]>
  </style>
 </defs>
 <g id="Layer_x0020_1">
  <metadata id="CorelCorpID_0Corel-Layer"/>
  <path class="fil0" d="M6600.07 3584.58l-0.48 97.91 -600.29 -2.99c-106.67,-186.96 -835.75,-1708.11 -841.2,-1828.37l593.38 0c197.32,459.24 510.56,1058.62 738.92,1549.46 79.63,171.16 60.61,168.13 109.67,183.99z"/>
  <path class="fil0" d="M7120.07 3584.58l-0.48 97.91 540.6 2.7 3.53 -1903c115,52.52 171.73,168.28 245.4,269.07l1043.19 1408.78c76.69,103.97 104.71,214.28 246.27,227.86 120.93,11.61 376.05,2.97 502.52,-4.67 -47.09,-148.74 -2510.33,-3415.97 -2526.93,-3424.96 -60.39,126.16 -13.14,2922.29 -20.63,3337.61 -13.92,-5.08 -24.77,-8.49 -33.47,-11.3z"/>
  <path class="fil0" d="M17357.28 3147.62c75.69,-38.92 250.79,-219.59 292.72,-281.49 -53,-119.37 -124.72,-154.01 -194.9,-283.05 -465,-854.92 206.93,-1893.93 1128.78,-1924.54 945.03,-31.38 1645.02,1009.29 1097.65,1894.44 -65.78,106.37 -166.92,219.25 -185.5,286.49 58.32,71.3 218.59,248.76 313.59,317.84 181.69,-88.19 421.37,-573.55 470.77,-800.39 439.55,-2018.38 -2286.5,-3052.63 -3276.38,-1150.68 -138.37,265.85 -220.61,721.87 -133.49,1110.6 62.22,277.65 272.26,744.84 486.76,830.78z"/>
  <path class="fil1" d="M14929.07 2248.93l86.87 -98.59c93.99,-162.94 580.17,-765.86 734.4,-971.42 92.09,-122.75 678.73,-832.34 740.53,-986.32l-630.48 1.68c-74.69,126.57 -1275.99,1683.28 -1318.67,1705.43l-4.53 -1698.41 -499.14 0.55 -5.25 3163.03c60.69,-10.88 19.37,5.33 61.45,-32.52 14.85,-13.36 44.12,-54.09 58.1,-72.49l336.12 -435.39c155.48,-204.26 266.42,-361.23 440.6,-575.55z"/>
  <path class="fil2" d="M26.41 3679.25c221.67,41.5 804.88,10.4 1059.84,8.29 347.84,-2.88 628.07,-43.49 909.49,-152.36 430.73,-166.62 936.15,-692.61 906.7,-1256.3l-456.74 -1.41c-193.82,256.67 -126.52,1085.03 -1901.22,943.71l-18.61 -950.56 -486.56 0 -12.9 1408.63z"/>
  <path class="fil1" d="M3322.94 3687.47l585.67 -0.7c86.51,-112.92 1070.36,-2239.46 1242.36,-2587.4 156.65,-316.89 150.79,-228.91 -176.12,-866.27 -64.7,46.05 -82.73,116.85 -121.2,195.83l-309.87 647.82c-150.08,322.4 -1203.3,2454.9 -1220.84,2610.72z"/>
  <path class="fil0" d="M10229.76 3681.78l619.71 4.04 1231.14 -2586.25c140.49,-317.57 150.93,-172.84 -74.7,-657.67 -42.81,-92 -54.45,-156.27 -130.09,-196.05 -104.47,141.73 -675.73,1410.55 -828.18,1713.54 -142.42,283.05 -272.54,587.6 -412.96,864.22l-404.92 858.17z"/>
  <path class="fil0" d="M48.14 668.52c1265.11,60.24 1818.92,-279.99 2327.82,825.85l512.47 4.42c6.3,-335.85 -438.38,-976.39 -906.56,-1152.68 -493.49,-185.82 -1344.03,-188.29 -1930.94,-142.31l-2.79 464.72z"/>
  <path class="fil1" d="M12927.46 3681.49l600.62 7.75c-10.95,-150.62 -721.89,-1565.34 -851.77,-1835.5l-607.65 -1.78c24.94,141.77 344.99,757.12 417.82,908.91 144.65,301.53 290.14,634.97 440.98,920.62z"/>
  <path class="fil0" d="M14929.07 2248.93c56.58,-51.23 -12.36,-15.71 93.37,-36.73 18.96,72.32 817.72,1457.96 895.28,1476.51l559.78 0c-24.79,-179.82 -718.98,-1190.56 -853,-1505.88 -177.65,-19.39 -529.18,18.02 -608.56,-32.49l-86.87 98.59z"/>
  <polygon class="fil1" points="9221.68,1424.17 9727.85,1426.13 9735.62,199.9 9221.34,194.73 "/>
  <path class="fil1" d="M18153.19 3620.51c177.1,90.86 682.13,73.07 861.92,1 -12.58,-137.38 -71.69,-274.47 -107.34,-409.4l-297.72 8.43c-407.59,-4.34 -351.98,-188.57 -445.2,184.67l-27.96 155.19c4.11,53.53 -0.24,29.81 16.3,60.11z"/>
  <polygon class="fil0" points="10270.71,3806.22 13643.25,3807.03 13644.39,12.51 10274.99,6.7 "/>
  <path class="fil3" d="M11218.49 2763.73l1478.39 0.45c89.01,274.4 338.74,1070.15 655.16,665.29 128.13,-163.94 -38.25,-432.85 -98.92,-578.37l-922.08 -2154.7c-80.93,-194.21 -123.38,-401.21 -357.15,-414.18 -251.33,-13.94 -298.08,173.7 -386.38,384.12l-917.05 2158.44c-67.29,159.12 -232.16,431.6 -120.1,598.07 42.36,62.94 140.5,122.24 254.29,100.38 194.79,-37.43 361.52,-584.25 413.84,-759.5z"/>
  <path class="fil0" d="M11428.38 2302.99l1061.29 1.6c-31.4,-201.62 -421.65,-1036.68 -517.58,-1324.05 -92.6,86.38 -214.86,480.02 -283.41,636.2 -60.47,137.75 -238.51,546.79 -260.3,686.25z"/>
 </g>
</svg>
