<svg width="42" height="38" viewBox="0 0 42 38" fill="none" xmlns="http://www.w3.org/2000/svg">
<path d="M14.3772 20.5834L22.0383 26.3555C22.4578 26.6716 23.0504 26.6092 23.3949 26.2126L37.9141 9.50006" stroke="#1400FF" stroke-linecap="round"/>
<path fill-rule="evenodd" clip-rule="evenodd" d="M17.821 19.8444L26.5229 9.82792C26.704 9.61946 26.6819 9.30366 26.4734 9.12255C26.2649 8.94145 25.9491 8.96363 25.768 9.17209L17.0334 19.2263L17.821 19.8444ZM14.5378 23.6236L13.7501 23.0055L11.2302 25.906C11.0619 26.0998 10.774 26.1346 10.5643 25.9865L4.57818 21.7583C4.35263 21.599 4.04063 21.6527 3.88132 21.8782C3.722 22.1038 3.7757 22.4158 4.00125 22.5751L9.9874 26.8033C10.6165 27.2477 11.48 27.1433 11.9851 26.5619L14.5378 23.6236Z" fill="#001AFF"/>
</svg>
