<svg width="48" height="48" viewBox="0 0 48 48" fill="none" xmlns="http://www.w3.org/2000/svg">
<g clip-path="url(#clip0_14_641)">
<path d="M48 23.913C48 10.7062 37.2548 0 24 0C10.7452 0 0 10.7062 0 23.913C0 35.8485 8.77641 45.7416 20.25 47.5356V30.8254H14.1562V23.913H20.25V18.6447C20.25 12.6515 23.8331 9.34103 29.3152 9.34103C31.9402 9.34103 34.6875 9.80808 34.6875 9.80808V15.6929H31.6613C28.68 15.6929 27.75 17.5364 27.75 19.4293V23.913H34.4062L33.3422 30.8254H27.75V47.5356C39.2236 45.7416 48 35.8485 48 23.913Z" fill="white"/>
</g>
<defs>
<clipPath id="clip0_14_641">
<rect width="48" height="47.8261" fill="white"/>
</clipPath>
</defs>
</svg>
