<svg width="48" height="48" viewBox="0 0 48 48" fill="none" xmlns="http://www.w3.org/2000/svg">
<g clip-path="url(#clip0_14_637)">
<path d="M24 4.30622C30.4125 4.30622 31.1719 4.33424 33.6938 4.44633C36.0375 4.54908 37.3031 4.94141 38.1469 5.26834C39.2625 5.69803 40.0688 6.22113 40.9031 7.05248C41.7469 7.89317 42.2625 8.68716 42.6938 9.79874C43.0219 10.6394 43.4156 11.9098 43.5188 14.2357C43.6313 16.7578 43.6594 17.5144 43.6594 23.8944C43.6594 30.2836 43.6313 31.0403 43.5188 33.553C43.4156 35.8883 43.0219 37.1493 42.6938 37.99C42.2625 39.1016 41.7375 39.9049 40.9031 40.7362C40.0594 41.5769 39.2625 42.0907 38.1469 42.5204C37.3031 42.8473 36.0281 43.2396 33.6938 43.3424C31.1625 43.4545 30.4031 43.4825 24 43.4825C17.5875 43.4825 16.8281 43.4545 14.3063 43.3424C11.9625 43.2396 10.6969 42.8473 9.85313 42.5204C8.7375 42.0907 7.93125 41.5676 7.09688 40.7362C6.25313 39.8956 5.7375 39.1016 5.30625 37.99C4.97813 37.1493 4.58438 35.8789 4.48125 33.553C4.36875 31.0309 4.34063 30.2743 4.34063 23.8944C4.34063 17.5051 4.36875 16.7485 4.48125 14.2357C4.58438 11.9005 4.97813 10.6394 5.30625 9.79874C5.7375 8.68716 6.2625 7.88383 7.09688 7.05248C7.94063 6.21179 8.7375 5.69803 9.85313 5.26834C10.6969 4.94141 11.9719 4.54908 14.3063 4.44633C16.8281 4.33424 17.5875 4.30622 24 4.30622ZM24 0C17.4844 0 16.6688 0.0280231 14.1094 0.140115C11.5594 0.252208 9.80625 0.663213 8.2875 1.2517C6.70312 1.86821 5.3625 2.68088 4.03125 4.01664C2.69063 5.34307 1.875 6.67884 1.25625 8.24813C0.665625 9.77072 0.253125 11.5082 0.140625 14.0489C0.028125 16.6084 0 17.421 0 23.913C0 30.4051 0.028125 31.2177 0.140625 33.7678C0.253125 36.3086 0.665625 38.0554 1.25625 39.5686C1.875 41.1473 2.69063 42.483 4.03125 43.8094C5.3625 45.1359 6.70313 45.9579 8.27813 46.565C9.80625 47.1535 11.55 47.5645 14.1 47.6766C16.6594 47.7887 17.475 47.8167 23.9906 47.8167C30.5063 47.8167 31.3219 47.7887 33.8813 47.6766C36.4313 47.5645 38.1844 47.1535 39.7031 46.565C41.2781 45.9579 42.6188 45.1359 43.95 43.8094C45.2812 42.483 46.1063 41.1473 46.7156 39.578C47.3063 38.0554 47.7188 36.3179 47.8313 33.7772C47.9438 31.2271 47.9719 30.4144 47.9719 23.9224C47.9719 17.4304 47.9438 16.6177 47.8313 14.0676C47.7188 11.5268 47.3063 9.78006 46.7156 8.26681C46.125 6.67884 45.3094 5.34307 43.9688 4.01664C42.6375 2.69022 41.2969 1.86821 39.7219 1.26104C38.1938 0.672554 36.45 0.261549 33.9 0.149457C31.3313 0.0280231 30.5156 0 24 0Z" fill="white"/>
<path d="M24 11.6296C17.1938 11.6296 11.6719 17.1315 11.6719 23.9131C11.6719 30.6947 17.1938 36.1966 24 36.1966C30.8062 36.1966 36.3281 30.6947 36.3281 23.9131C36.3281 17.1315 30.8062 11.6296 24 11.6296ZM24 31.881C19.5844 31.881 16.0031 28.3127 16.0031 23.9131C16.0031 19.5135 19.5844 15.9452 24 15.9452C28.4156 15.9452 31.9969 19.5135 31.9969 23.9131C31.9969 28.3127 28.4156 31.881 24 31.881Z" fill="white"/>
<path d="M39.6937 11.1438C39.6937 12.7318 38.4 14.0115 36.8156 14.0115C35.2219 14.0115 33.9375 12.7225 33.9375 11.1438C33.9375 9.55585 35.2313 8.27612 36.8156 8.27612C38.4 8.27612 39.6937 9.56519 39.6937 11.1438Z" fill="white"/>
</g>
<defs>
<clipPath id="clip0_14_637">
<rect width="48" height="47.8261" fill="white"/>
</clipPath>
</defs>
</svg>
