<svg width="42" height="38" viewBox="0 0 42 38" fill="none" xmlns="http://www.w3.org/2000/svg">
<path d="M10.1475 8.55915C7.57928 10.9696 5.97583 14.1466 5.61856 17.5511C5.26127 20.9559 6.17353 24.3686 8.19415 27.2069C10.2142 30.0443 13.2152 32.1305 16.6812 33.1173C20.147 34.104 23.8696 33.9326 27.2168 32.6313C30.5644 31.3299 33.3348 28.9765 35.0499 25.9648C36.7655 22.9524 37.3166 19.4712 36.6056 16.1163C35.8947 12.762 33.968 9.74956 31.1624 7.58849C28.3573 5.42787 24.8455 4.25 21.2255 4.25" stroke="#FF0000" stroke-linecap="round"/>
<path d="M21.2254 19L12.7906 11.0833" stroke="#FF0000" stroke-linecap="round"/>
<path d="M21.2255 3.95831V7.91665" stroke="#FF0000" stroke-linecap="round"/>
<path d="M36.4082 19L33.0343 19" stroke="#FF0000" stroke-linecap="round"/>
<path d="M21.2255 30.0833V33.25" stroke="#FF0000" stroke-linecap="round"/>
<path d="M9.41669 19L6.04275 19" stroke="#FF0000" stroke-linecap="round"/>
</svg>
