<svg width="48" height="48" viewBox="0 0 48 48" fill="none" xmlns="http://www.w3.org/2000/svg">
<path d="M47.5219 14.3478C47.5219 14.3478 47.0531 11.0504 45.6094 9.60258C43.7812 7.69701 41.7375 7.68767 40.8 7.57558C34.0875 7.08984 24.0094 7.08984 24.0094 7.08984H23.9906C23.9906 7.08984 13.9125 7.08984 7.2 7.57558C6.2625 7.68767 4.21875 7.69701 2.39062 9.60258C0.946875 11.0504 0.4875 14.3478 0.4875 14.3478C0.4875 14.3478 0 18.2244 0 22.0915V25.7159C0 29.5831 0.478125 33.4596 0.478125 33.4596C0.478125 33.4596 0.946875 36.757 2.38125 38.2048C4.20937 40.1104 6.60938 40.045 7.67813 40.2505C11.5219 40.6148 24 40.7269 24 40.7269C24 40.7269 34.0875 40.7082 40.8 40.2318C41.7375 40.1197 43.7812 40.1104 45.6094 38.2048C47.0531 36.757 47.5219 33.4596 47.5219 33.4596C47.5219 33.4596 48 29.5924 48 25.7159V22.0915C48 18.2244 47.5219 14.3478 47.5219 14.3478ZM19.0406 30.1155V16.6737L32.0062 23.418L19.0406 30.1155Z" fill="white"/>
</svg>
