<svg width="48" height="34" viewBox="0 0 48 34" fill="none" xmlns="http://www.w3.org/2000/svg">
<path d="M47.5219 7.34783C47.5219 7.34783 47.0531 4.05044 45.6094 2.60258C43.7812 0.697011 41.7375 0.68767 40.8 0.575577C34.0875 0.0898435 24.0094 0.0898438 24.0094 0.0898438H23.9906C23.9906 0.0898438 13.9125 0.0898435 7.2 0.575577C6.2625 0.68767 4.21875 0.697011 2.39062 2.60258C0.946875 4.05044 0.4875 7.34783 0.4875 7.34783C0.4875 7.34783 0 11.2244 0 15.0915V18.7159C0 22.583 0.478125 26.4596 0.478125 26.4596C0.478125 26.4596 0.946875 29.757 2.38125 31.2048C4.20937 33.1104 6.60938 33.045 7.67813 33.2505C11.5219 33.6148 24 33.7269 24 33.7269C24 33.7269 34.0875 33.7082 40.8 33.2318C41.7375 33.1197 43.7812 33.1104 45.6094 31.2048C47.0531 29.757 47.5219 26.4596 47.5219 26.4596C47.5219 26.4596 48 22.5924 48 18.7159V15.0915C48 11.2244 47.5219 7.34783 47.5219 7.34783ZM19.0406 23.1155V9.67374L32.0062 16.418L19.0406 23.1155Z" fill="white"/>
</svg>
