<svg width="159" height="30" viewBox="0 0 159 30" fill="none" xmlns="http://www.w3.org/2000/svg">
<path fill-rule="evenodd" clip-rule="evenodd" d="M51.2011 28.2439L51.1974 29.0168L46.5218 28.9932C45.691 27.5173 40.0123 15.5092 39.9698 14.5599H44.5916C46.1285 18.1852 48.5682 22.9167 50.3469 26.7914C50.9671 28.1426 50.819 28.1187 51.2011 28.2439Z" fill="#0CBF65"/>
<path fill-rule="evenodd" clip-rule="evenodd" d="M55.2512 28.2441L55.2474 29.017L59.4581 29.0383L59.4856 14.0159C60.3813 14.4305 60.8231 15.3443 61.3969 16.1399L69.5222 27.2609C70.1195 28.0817 70.3377 28.9525 71.4403 29.0597C72.3822 29.1513 74.3693 29.0831 75.3544 29.0228C74.9876 27.8486 55.8018 2.05696 55.6726 1.98599C55.2022 2.98191 55.5702 25.0547 55.5119 28.3333C55.4034 28.2932 55.3189 28.2662 55.2512 28.2441Z" fill="#0CBF65"/>
<path fill-rule="evenodd" clip-rule="evenodd" d="M134.987 24.7946C135.576 24.4873 136.94 23.0611 137.267 22.5725C136.854 21.6301 136.295 21.3567 135.749 20.338C132.127 13.5893 137.361 5.38726 144.541 5.14563C151.901 4.89791 157.353 13.113 153.09 20.1004C152.578 20.9401 151.79 21.8312 151.645 22.362C152.1 22.9248 153.348 24.3257 154.088 24.871C155.503 24.1749 157.37 20.3434 157.755 18.5527C161.178 2.61953 139.945 -5.54489 132.235 9.4692C131.158 11.5678 130.517 15.1677 131.196 18.2363C131.68 20.4281 133.316 24.1161 134.987 24.7946Z" fill="#0CBF65"/>
<path fill-rule="evenodd" clip-rule="evenodd" d="M116.074 17.7003L116.751 16.922C117.483 15.6357 121.27 10.8763 122.471 9.25356C123.188 8.28457 127.757 2.68302 128.239 1.4675L123.328 1.48076C122.746 2.47991 113.39 14.7687 113.057 14.9435L113.022 1.53618L109.134 1.54052L109.093 26.5096C109.566 26.4238 109.244 26.5517 109.572 26.2529C109.688 26.1475 109.916 25.8259 110.024 25.6807L112.642 22.2437C113.853 20.6313 114.717 19.3921 116.074 17.7003Z" fill="#ACCE22"/>
<path fill-rule="evenodd" clip-rule="evenodd" d="M0 28.9914C1.72655 29.319 6.26907 29.0735 8.2549 29.0568C10.9642 29.0341 13.1468 28.7135 15.3388 27.8541C18.6936 26.5388 22.6303 22.3866 22.4009 17.9368L18.8434 17.9257C17.3338 19.9518 17.858 26.4909 4.03515 25.3754L3.8902 17.8716H0.100476L0 28.9914Z" fill="#99CC33"/>
<path fill-rule="evenodd" clip-rule="evenodd" d="M25.6759 29.0562L30.2376 29.0506C30.9114 28.1593 38.5744 11.3722 39.9141 8.62558C41.1342 6.12403 41.0886 6.81855 38.5423 1.7872C38.0384 2.15072 37.898 2.70962 37.5983 3.33309L35.1848 8.44702C34.0159 10.9921 25.8125 27.8261 25.6759 29.0562Z" fill="#ACCE22"/>
<path fill-rule="evenodd" clip-rule="evenodd" d="M79.4722 29.0112L84.299 29.0431L93.8881 8.62713C94.9824 6.12021 95.0637 7.26272 93.3063 3.43545C92.9728 2.70919 92.8822 2.20184 92.293 1.88782C91.4793 3.00664 87.0299 13.0228 85.8425 15.4146C84.7332 17.649 83.7197 20.0531 82.626 22.2368L79.4722 29.0112Z" fill="#0CBF65"/>
<path fill-rule="evenodd" clip-rule="evenodd" d="M0.169312 5.22441C10.023 5.69995 14.3366 3.01416 18.3003 11.7437L22.2918 11.7786C22.3409 9.12739 18.8774 4.07093 15.2308 2.67929C11.3871 1.21242 4.76238 1.19292 0.191042 1.55589L0.169312 5.22441Z" fill="#0CBF65"/>
<path fill-rule="evenodd" clip-rule="evenodd" d="M100.484 29.009L105.162 29.0702C105.077 27.8812 99.5393 16.7133 98.5277 14.5806L93.7949 14.5666C93.9891 15.6857 96.4819 20.5433 97.0492 21.7416C98.1758 24.1219 99.309 26.7541 100.484 29.009Z" fill="#ACCE22"/>
<path fill-rule="evenodd" clip-rule="evenodd" d="M116.074 17.7003C116.514 17.2959 115.977 17.5763 116.801 17.4104C116.949 17.9813 123.17 28.9196 123.774 29.066H128.134C127.941 27.6465 122.534 19.6677 121.49 17.1785C120.107 17.0254 117.369 17.3208 116.75 16.922L116.074 17.7003Z" fill="#0CBF65"/>
<path fill-rule="evenodd" clip-rule="evenodd" d="M71.6203 11.1896L75.5628 11.205L75.6233 1.52513L71.6177 1.48431L71.6203 11.1896Z" fill="#ACCE22"/>
<path fill-rule="evenodd" clip-rule="evenodd" d="M141.186 28.5276C142.566 29.2448 146.499 29.1044 147.9 28.5355C147.802 27.451 147.341 26.3688 147.064 25.3036L144.745 25.3702C141.57 25.3359 142.003 23.8816 141.277 26.828L141.059 28.0531C141.091 28.4756 141.058 28.2884 141.186 28.5276Z" fill="#ACCE22"/>
<path fill-rule="evenodd" clip-rule="evenodd" d="M79.7911 29.9936L106.059 30L106.068 0.0458644L79.8244 0L79.7911 29.9936Z" fill="#0CBF65"/>
<path fill-rule="evenodd" clip-rule="evenodd" d="M87.1733 21.7642L98.6882 21.7677C99.3815 23.9338 101.327 30.2155 103.791 27.0195C104.789 25.7254 103.493 23.6026 103.021 22.4539L95.8387 5.44455C95.2084 3.91144 94.8777 2.27737 93.0569 2.17499C91.0994 2.06494 90.7353 3.54618 90.0475 5.20725L82.9048 22.2461C82.3806 23.5022 81.0965 25.6532 81.9693 26.9673C82.2993 27.4641 83.0637 27.9322 83.9499 27.7597C85.4671 27.4642 86.7658 23.1476 87.1733 21.7642Z" fill="white"/>
<path fill-rule="evenodd" clip-rule="evenodd" d="M88.8079 18.127L97.0741 18.1396C96.8295 16.548 93.7899 9.95601 93.0427 7.6875C92.3215 8.36939 91.3692 11.4768 90.8353 12.7097C90.3643 13.7971 88.9776 17.0261 88.8079 18.127Z" fill="#0CBF65"/>
</svg>
